<svg id="Calque_1" data-name="Calque 1" xmlns="http://www.w3.org/2000/svg" viewBox="0 0 1158 1158" style=""><defs><style>.cls-1{fill:#1d1d1b;stroke-width:20px;}.cls-1,.cls-2{stroke:#1d1d1b;stroke-miterlimit:10;}.cls-2{fill:none;stroke-width:50px;}</style></defs><path class="cls-1 XiucjDlx_0" d="M984.2,1199.9c-146.7.2-253.8-124.1-232.4-263.6C777.3,770.4,967.5,688.5,1105,784.1c7.7,5.3,15.3,10.7,23.1,15.9,6,4,13.2,4.9,16.5-1.9,1.9-3.9.8-11.9-2.8-15.5a89.8,89.8,0,0,0-8.4-7.6c-54.7-42-116.3-60-185-52.2-159.1,18.1-260.6,178.8-208.8,330,34.9,101.6,130.3,170.4,237.8,169.7,59-.3,112.9-17.3,158.6-56.3,2.9-2.5,6.9-4.9,7.9-8.1s2.8-8.8-.3-14.5c-1.5-2.3-9.2-2.5-13.1-1s-9.7,6.7-14.5,10.2C1075.1,1182.6,1030.4,1201.2,984.2,1199.9ZM1041.7,996a8,8,0,0,0,13.6,5.6h.1l253.7-255.3c2.4-2.4,5.9-4.8,6.5-7.6,1-4.4,1.5-10.9-1-13.4s-9.1-1.9-13.1-.3-7,6-10.3,9.3L1077.8,947.1c-3.1,3.2-7.3,6.8-12.8,12-.2-7.4-.1-12.4-.1-16.9-.1-28.8.1-57.6-.2-86.4,0-9,1.9-21.5-11.3-21.7s-11.6,12.4-11.6,21.3c-.3,46.6-.2,93.3-.1,139.9Zm113.2-9.6c4.7,5.9,8.2,10,11.3,14.4l141.7,197.4c4.5,6.2,8.3,13.1,14,18.1,2,1.7,5.1,2.3,8.3,2.6a6.6,6.6,0,0,0,7.4-5.1c.6-3,1.2-5.9.3-8.4-2.1-6.2-6.6-11.8-10.6-17.3q-77.7-108.6-155.7-217c-11.5-16.1-15.8-17-29.9-3.3-28.2,27.5-55.3,56.3-84,83.3-12.3,11.5-17.6,23.7-16.3,40.2s3,21.3,12.3,21.3,10.3-5,11-21c.4-11.5,3.3-20,11.7-28,22.6-21.7,44.5-44.3,66.7-66.4C1146.3,993.9,1149.8,991,1154.9,986.4Z" transform="translate(-442 -377)"></path><path class="cls-2 XiucjDlx_1" d="M25,579A554,554 0,1,1 1133,579A554,554 0,1,1 25,579"></path><style data-made-with="vivus-instant">.XiucjDlx_0{stroke-dasharray:4312 4314;stroke-dashoffset:4313;animation:XiucjDlx_draw_0 7200ms linear 0ms infinite,XiucjDlx_fade 7200ms linear 0ms infinite;}.XiucjDlx_1{stroke-dasharray:3482 3484;stroke-dashoffset:3483;animation:XiucjDlx_draw_1 7200ms linear 0ms infinite,XiucjDlx_fade 7200ms linear 0ms infinite;}@keyframes XiucjDlx_draw{100%{stroke-dashoffset:0;}}@keyframes XiucjDlx_fade{0%{stroke-opacity:1;}94.44444444444444%{stroke-opacity:1;}100%{stroke-opacity:0;}}@keyframes XiucjDlx_draw_0{11.11111111111111%{stroke-dashoffset: 4313}38.88888888888889%{ stroke-dashoffset: 0;}100%{ stroke-dashoffset: 0;}}@keyframes XiucjDlx_draw_1{25%{stroke-dashoffset: 3483}52.77777777777778%{ stroke-dashoffset: 0;}100%{ stroke-dashoffset: 0;}}</style></svg>